<?xml version="1.0" encoding="UTF-8"?>
<svg id="Layer_2" data-name="Layer 2" xmlns="http://www.w3.org/2000/svg" viewBox="0 0 126 141">
  <defs>
    <style>
      .cls-1 {
        fill: #fff;
      }
    </style>
  </defs>
  <g id="Layer_1-2" data-name="Layer 1">
    <g>
      <polygon class="cls-1" points=".5 141 0 141 0 0 126 0 126 .5 .5 .5 .5 141"/>
      <g>
        <path class="cls-1" d="M90.64,54.31l.09,1.4,1.44.37v8.42s-1.56.55-1.56.55l.07,6.43-1.55.59-.45,8.37-1.56.55c-.17,2.14.55,5.97-.47,7.81-.35.63-1.28.46-1.5,1.61-.32,1.7.23,4.15.05,5.97-2.11.29-1.64,1.39-2.08,3.21H27.44c.48-2.07-1.87-3.21-2.05-4.17-.32-1.7.23-4.15.04-5.97l-1.56-.55c-.14-2.28.48-5.37-.37-7.5-.4-1-1.39-.78-1.6-1.92-.39-2.11.28-5.22.04-7.47l-1.56-.55c.04-1.62.14-3.23-.1-4.84-.27-1.84-1.55-1.99-1.8-4.15s.07-4.28-.09-6.4l1.44-.37.09-1.4h70.72ZM85.16,61.28H25.4c-.78,3.34,1.63,4.93,1.93,7.79.2,1.95.02,3.93.03,5.89l1.56.55-.07,6.42c3.33.62,1.64,6.19,1.99,8.97,1.63.38,1.46.47,1.99,2.05l45.36.23c-.52-2.81.83-1.63,1.36-2.09.99-.84.52-7.03.59-8.6l1.56-.55c.14-2.28-.48-5.37.37-7.5.4-1,1.39-.78,1.6-1.92.32-1.71-.23-4.15-.04-5.97l1.56-.55-.03-4.71Z"/>
        <path class="cls-1" d="M27.39,27.9c.19-.17,1.78.57,1.96-1.77l52.33-.23v2s1.99,0,1.99,0v15.45h-6.97v-10.46h-42.33v10.46h-6.97v-15.45Z"/>
        <path class="cls-1" d="M60.23,70.31l.06,1.39,2.42.12.14,1.33,1.33.14.12,1.91,1.38.07.1,3.18-1.48.3-.12,1.91c-.98.53-2.37,1.19-3.41,1.81-.35.21-.39.97-.61,1.11-1.09.69-7.76-.29-9.58.15l-.3-1.48c-2.78.36-1.6-.9-2.07-1.41-.42-.45-2.05-.02-2.02-2.03-1.87.76-1.62-3.22-1.28-3.55.16-.16,1.01.11,1.28-.15s.14-1.04.4-1.37c.45-.57,1.34-.35,1.62-.66.47-.51-.71-1.77,2.07-1.41l.07-1.38h9.89Z"/>
      </g>
    </g>
  </g>
</svg>