<?xml version="1.0" encoding="UTF-8"?>
<svg id="Layer_2" data-name="Layer 2" xmlns="http://www.w3.org/2000/svg" viewBox="0 0 203 100.17">
  <defs>
    <style>
      .cls-1 {
        fill: #fff;
      }
    </style>
  </defs>
  <g id="Layer_1-2" data-name="Layer 1">
    <g>
      <rect class="cls-1" width="203" height=".5"/>
      <path class="cls-1" d="M100,97.89c-.05.17-2.49,2.2-2.74,2.25l-23.48.03-1.71-2.34.15-51.03c2.07-.16,1.55-1.49,1.9-1.83.25-.24,1-.02,1.25-.25.28-.27-.07-1.09.45-1.39,1.39-.8,3.31.52,3.45-2.01l3.23.04v-2s1.97-.04,1.97-.04l.06-1.39c2.76.7,2.86-1.01,3.85-1.55,1.37-.74,2.65.35,2.89-2.03l3.16-.04c.08-1.52.53-1.78,1.96-2.05-.39-2.58,2.88-.74,3.56-1.43.16-.16-.1-1.03.13-1.3.79-.9,3.77.39,3.69-2.15h5.95s.34,1.43.34,1.43l3.87.69.1,1.33,2.93.13.06,1.38,1.98.04v2s3.22-.04,3.22-.04c.14,3.1,4.19.6,3.81,3.45l2.93.13.07,1.38c3.05-.5,1.29,3.03,5.19,2.01l.34,1.43c.3.32,2.46.2,3.12.57.69.39-.44,2.15,2.32,1.51l.05,1.97,1.49.3-.11,51.49-1.33.14-.37,1.44h-23.95c.23-1.71-2.28-1.8-2.28-2.28v-22.17h-13.5v22.17Z"/>
    </g>
  </g>
</svg>