<?xml version="1.0" encoding="UTF-8"?>
<svg id="Layer_2" data-name="Layer 2" xmlns="http://www.w3.org/2000/svg" viewBox="0 0 154.37 174">
  <defs>
    <style>
      .cls-1 {
        fill: #fff;
      }
    </style>
  </defs>
  <g id="Layer_1-2" data-name="Layer 1">
    <g>
      <rect class="cls-1" width=".5" height="174"/>
      <path class="cls-1" d="M154.37,75.16c0,30.68-24.81,55.55-55.41,55.55s-55.41-24.87-55.41-55.55,24.81-55.55,55.41-55.55,55.41,24.87,55.41,55.55ZM102.21,51.06l-30.62-.09-.55,1.57-6.43-.07c-.23,2.04-1.05,1.24-1.75,1.8-.76.59-.02,1.9-2.05,2.01-.46,3.12.95,4.48,2.34,6.76h9.89s.55-1.57.55-1.57h26.88s.55,1.57.55,1.57l7.93-.07.6,1.55,6.39.45.54,1.57c1.25.1,2.8-.27,3.98-.04s.98,1.15,1.61,1.5c1.21.67,3.22.4,4.58.56l.06,1.39,3.42.13c-.37,2.86,3.66.35,3.81,3.47,3.91.59,2.66-.7,3.32-1.4.27-.28,1.04-.14,1.37-.4.58-.45.35-1.35.65-1.63.28-.26,1.12,0,1.29-.15.23-.22.78-6.05-1.41-5.2-.65-2.48-1.19-1.65-3.47-1.81.4-2.28-1.73-1.18-3.15-1.94-.56-.3-.56-1.2-1.19-1.41-.88-.3-2.87.15-3.15-.13l-.3-1.48-4.44.07c-.3-2.74-3.64-1.81-5.74-2.09l-.3-1.48c-3.82,1.14-6.03-1.59-9.02-1.9-1.95-.2-3.94-.02-5.9-.03l-.3-1.48ZM102.21,70.06l-29.12-.09-.3,1.48c-.56.57-7.12-1.03-6.49,1.99l-1.96.06-.03,4.7c1.66.57,1.76.67,2.33,2.34h6.41s.3-1.48.3-1.48c7.12-.56,15.03-1.01,22.18-.58,2.61.16,3.79.83,5.6,1.48,2.18.78,4.31.47,6.57.6l.3,1.48c1.66.04,4.37-.34,5.83.47.55.31.58,1.2,1.19,1.41.88.3,2.87-.15,3.15.13l.06,1.39,3.42.13c-.66,2.71,4.52,1.51,5,1.98l.06,1.39,3.19.09.38-1.43c1.79.6,2.2-3.82,1.84-4.8-.4-1.07-2.42-.25-1.99-2.24-2.8.3-1.57-.9-2.04-1.44-.41-.48-2.6-.41-3.33-.72l-.34-1.44-3.19-.02-.06-1.38-4.89-.66-.34-1.44-4.44.07-.55-1.57-8.43-.43-.3-1.48ZM99.22,87.56l-24.13-.09-.55,1.57-6.66.52-.06,4.95,1.97.05.3,1.49h2.95s.54-1.57.54-1.57c3.84-.54,8.85.05,12.48-.43.99-.13,2.18-1.79,5.36-1.03.37.09.3.88.69.98,2.32.56,5.92.43,8.36.48l.55,1.57c4.74-1.26,7.07,2.37,11.42,1.93l.31,1.48,3.42.13c-.52,2.83,3.97.42,3.57,3.36l3.17.11c.27-2.31,3.44-1.42,2.22-4.73-.39-1.06-2.41-.25-1.99-2.24l-1.92-.12-.07-1.38c-1.21-.19-2.98.02-4.07-.57-.55-.3-.58-1.2-1.19-1.41-.88-.3-2.87.15-3.15-.13l-.3-1.48-4.44.07c-.58-3.42-5.95-1.49-8.48-2l-.3-1.48Z"/>
    </g>
  </g>
</svg>